<?xml version="1.0" encoding="UTF-8" standalone="no"?>
<!-- Created with Inkscape (http://www.inkscape.org/) -->

<svg
   xmlns:dc="http://purl.org/dc/elements/1.1/"
   xmlns:cc="http://creativecommons.org/ns#"
   xmlns:rdf="http://www.w3.org/1999/02/22-rdf-syntax-ns#"
   xmlns:svg="http://www.w3.org/2000/svg"
   xmlns="http://www.w3.org/2000/svg"
   xmlns:sodipodi="http://sodipodi.sourceforge.net/DTD/sodipodi-0.dtd"
   xmlns:inkscape="http://www.inkscape.org/namespaces/inkscape"
   width="48"
   height="48"
   viewBox="0 0 48 48.000001"
   id="svg3336"
   version="1.1"
   inkscape:version="0.91 r13725"
   sodipodi:docname="user1_go (copy).svg">
  <defs
     id="defs3338" />
  <sodipodi:namedview
     id="base"
     pagecolor="#ffffff"
     bordercolor="#666666"
     borderopacity="1.0"
     inkscape:pageopacity="0.0"
     inkscape:pageshadow="2"
     inkscape:zoom="7.9195959"
     inkscape:cx="-22.720816"
     inkscape:cy="21.072595"
     inkscape:document-units="px"
     inkscape:current-layer="layer1"
     showgrid="false"
     units="px"
     inkscape:window-width="1366"
     inkscape:window-height="744"
     inkscape:window-x="0"
     inkscape:window-y="24"
     inkscape:window-maximized="1" />
  <metadata
     id="metadata3341">
    <rdf:RDF>
      <cc:Work
         rdf:about="">
        <dc:format>image/svg+xml</dc:format>
        <dc:type
           rdf:resource="http://purl.org/dc/dcmitype/StillImage" />
        <dc:title />
      </cc:Work>
    </rdf:RDF>
  </metadata>
  <g
     inkscape:label="Layer 1"
     inkscape:groupmode="layer"
     id="layer1"
     transform="translate(0,-1004.3622)">
    <path
       style="opacity:1;fill:#0093cb;fill-opacity:1;stroke:none;stroke-width:0;stroke-miterlimit:4;stroke-dasharray:none;stroke-opacity:1"
       d="M 24.785156 18.080078 A 6.1871848 6.1871848 0 0 0 20.734375 19.455078 L 24.484375 22.789062 L 27.332031 18.708984 A 6.1871848 6.1871848 0 0 0 24.785156 18.080078 z M 28.796875 19.699219 L 25.814453 23.972656 L 29.851562 27.5625 A 6.1871848 6.1871848 0 0 0 28.796875 19.699219 z M 19.460938 20.857422 A 6.1871848 6.1871848 0 0 0 20.341797 28.726562 L 23.392578 24.353516 L 19.460938 20.857422 z M 24.722656 25.537109 L 21.78125 29.75 A 6.1871848 6.1871848 0 0 0 28.603516 28.988281 L 24.722656 25.537109 z "
       transform="translate(0,1004.3622)"
       id="path3334" />
  </g>
</svg>
